# xmcd
#
# Track frame offsets:
# 150
# 16957
# 36604
# 52626
# 85180
# 104817
# 123517
# 138525
# 156883
# 174910
# 187221
# 199606
# 226682
# 236671
# 255068
# 275442
# 289766
# 310932
#
# Disc length: 4334 seconds
#
#
# Revision: 0
# Processed by: cddbd v1.5.2PL0 Copyright (c) Steve Scherf et al.
# Submitted via: FreeRIP 2.96 
#
DISCID=f510ec12
DTITLE=Various Artist - Kuschel Jazz Vol. 7 - CD 2
DYEAR=2010
DGENRE=Jazz
TTITLE0=James Brown - All The Way
TTITLE1=Diana Krall - I'm Just A Lucky So And So
TTITLE2=Aretha Franklin - What A Difference A Day Made
TTITLE3=George Michael - Cowboys and Angels
TTITLE4=Sade - By Your Side
TTITLE5=Tom Gaebel - My Song To You
TTITLE6=Paul Carrack - Sunny
TTITLE7=The Neville Brothers - Yellow Moon
TTITLE8=Alicia Keys - How Come You Don't Call Me
TTITLE9=Otis Redding - (Sittin' On) The Dock Of The Bay
TTITLE10=Bette Midler - Do You Want To Dance
TTITLE11=K.D. Lang - The Air That I Breathe
TTITLE12=Vonda Shepard - Finally Home
TTITLE13=Joss Stone - Spoiled
TTITLE14=Miles Davis - Human Nature
TTITLE15=Roger Cicero - Bin Heute Abend Bei Dir
TTITLE16=Dusty Springfield - Nothing Has Been Proved
TTITLE17=Frank Sinatra and Paula Kelly - Sunshine Cake
EXTD=
EXTT0=
EXTT1=
EXTT2=
EXTT3=
EXTT4=
EXTT5=
EXTT6=
EXTT7=
EXTT8=
EXTT9=
EXTT10=
EXTT11=
EXTT12=
EXTT13=
EXTT14=
EXTT15=
EXTT16=
EXTT17=
PLAYORDER=
